<?xml version="1.0" encoding="UTF-8" standalone="no"?>
<!DOCTYPE svg PUBLIC "-//W3C//DTD SVG 1.1//EN" "http://www.w3.org/Graphics/SVG/1.1/DTD/svg11.dtd">
<svg width="100%" height="100%" viewBox="0 0 32 32" version="1.1" xmlns="http://www.w3.org/2000/svg" xmlns:xlink="http://www.w3.org/1999/xlink" xml:space="preserve" xmlns:serif="http://www.serif.com/" style="fill-rule:evenodd;clip-rule:evenodd;stroke-linejoin:round;stroke-miterlimit:2;">
    <g transform="matrix(0.0871527,0,0,0.0871527,3.43278,0.0946395)">
        <path id="path4213" d="M197.062,186.416C184.312,186.416 173.982,176.087 173.982,163.336C173.982,161.991 174.096,160.674 174.324,159.393L119.128,127.61C115.111,131.002 109.919,133.049 104.253,133.049C91.502,133.049 81.168,122.714 81.168,109.968C81.168,97.222 91.502,86.888 104.253,86.888C117.003,86.888 127.338,97.222 127.338,109.968C127.338,111.436 127.187,112.872 126.923,114.267L181.918,145.931C185.971,142.398 191.268,140.256 197.062,140.256C209.803,140.256 220.138,150.59 220.138,163.336C220.138,176.087 209.803,186.416 197.062,186.416M127.055,217.069C127.055,229.815 116.725,240.149 103.975,240.149C91.233,240.149 80.899,229.815 80.899,217.069C80.899,204.318 91.233,193.984 103.975,193.984C109.705,193.984 114.938,196.076 118.973,199.532L159.212,176.406C160.93,181.37 163.602,185.892 166.998,189.758L126.686,212.929C126.923,214.274 127.055,215.656 127.055,217.069M265.838,76.211L156.239,13.585C148.777,9.323 139.614,9.323 132.152,13.585L22.562,76.211C14.995,80.533 10.327,88.584 10.327,97.291L10.327,224.686C10.327,233.357 14.954,241.375 22.466,245.711L211.135,354.612L211.166,277.261L265.916,245.711C273.437,241.375 278.069,233.357 278.069,224.677L278.069,97.291C278.069,88.584 273.401,80.533 265.838,76.211" style="fill:rgb(61,66,66);fill-rule:nonzero;"/>
    </g>
</svg>
